<?xml version="1.0" encoding="UTF-8"?>
<!DOCTYPE svg PUBLIC "-//W3C//DTD SVG 1.1//EN" "http://www.w3.org/Graphics/SVG/1.1/DTD/svg11.dtd">
<svg xmlns="http://www.w3.org/2000/svg" version="1.1" width="478px" height="274px" style="shape-rendering:geometricPrecision; text-rendering:geometricPrecision; image-rendering:optimizeQuality; fill-rule:evenodd; clip-rule:evenodd" xmlns:xlink="http://www.w3.org/1999/xlink">
<g><path style="opacity:0.004" fill="#dcdddc" d="M 43.5,9.5 C 44.8333,10.1667 44.8333,10.1667 43.5,9.5 Z"/></g>
<g><path style="opacity:0.004" fill="#dcdddc" d="M 49.5,15.5 C 50.8333,16.1667 50.8333,16.1667 49.5,15.5 Z"/></g>
<g><path style="opacity:0.004" fill="#dcdddc" d="M 142.5,24.5 C 143.833,25.1667 143.833,25.1667 142.5,24.5 Z"/></g>
<g><path style="opacity:0.004" fill="#dcdddc" d="M 139.5,26.5 C 140.833,27.1667 140.833,27.1667 139.5,26.5 Z"/></g>
<g><path style="opacity:0.004" fill="#dcdddc" d="M 268.5,27.5 C 269.833,28.1667 269.833,28.1667 268.5,27.5 Z"/></g>
<g><path style="opacity:0.004" fill="#dcdddc" d="M 208.5,28.5 C 209.833,29.1667 209.833,29.1667 208.5,28.5 Z"/></g>
<g><path style="opacity:0.004" fill="#dcdddc" d="M 202.5,30.5 C 203.833,31.1667 203.833,31.1667 202.5,30.5 Z"/></g>
<g><path style="opacity:0.004" fill="#dcdddc" d="M 64.5,38.5 C 65.8333,39.1667 65.8333,39.1667 64.5,38.5 Z"/></g>
<g><path style="opacity:0.004" fill="#dcdddc" d="M 463.5,44.5 C 464.833,45.1667 464.833,45.1667 463.5,44.5 Z"/></g>
<g><path style="opacity:0.004" fill="#dcdddc" d="M 112.5,47.5 C 113.833,48.1667 113.833,48.1667 112.5,47.5 Z"/></g>
<g><path style="opacity:0.004" fill="#dcdddc" d="M 37.5,58.5 C 38.8333,59.1667 38.8333,59.1667 37.5,58.5 Z"/></g>
<g><path style="opacity:0.004" fill="#dcdddc" d="M 472.5,63.5 C 473.833,64.1667 473.833,64.1667 472.5,63.5 Z"/></g>
<g><path style="opacity:0.004" fill="#dcdddc" d="M 169.5,64.5 C 170.833,65.1667 170.833,65.1667 169.5,64.5 Z"/></g>
<g><path style="opacity:0.004" fill="#dcdddc" d="M 118.5,66.5 C 119.833,67.1667 119.833,67.1667 118.5,66.5 Z"/></g>
<g><path style="opacity:0.004" fill="#dcdddc" d="M 385.5,76.5 C 386.833,77.1667 386.833,77.1667 385.5,76.5 Z"/></g>
<g><path style="opacity:0.004" fill="#dcdddc" d="M 343.5,77.5 C 344.833,78.1667 344.833,78.1667 343.5,77.5 Z"/></g>
<g><path style="opacity:0.004" fill="#dcdddc" d="M 445.5,84.5 C 446.833,85.1667 446.833,85.1667 445.5,84.5 Z"/></g>
<g><path style="opacity:0.004" fill="#dcdddc" d="M 205.5,85.5 C 206.833,86.1667 206.833,86.1667 205.5,85.5 Z"/></g>
<g><path style="opacity:0.004" fill="#dcdddc" d="M 439.5,95.5 C 440.833,96.1667 440.833,96.1667 439.5,95.5 Z"/></g>
<g><path style="opacity:0.004" fill="#dcdddc" d="M 238.5,98.5 C 239.833,99.1667 239.833,99.1667 238.5,98.5 Z"/></g>
<g><path style="opacity:0.004" fill="#dcdddc" d="M 25.5,105.5 C 26.8333,106.167 26.8333,106.167 25.5,105.5 Z"/></g>
<g><path style="opacity:0.004" fill="#dcdddc" d="M 184.5,107.5 C 185.833,108.167 185.833,108.167 184.5,107.5 Z"/></g>
<g><path style="opacity:0.004" fill="#dcdddc" d="M 28.5,114.5 C 29.8333,115.167 29.8333,115.167 28.5,114.5 Z"/></g>
<g><path style="opacity:0.902" fill="#ba9a29" d="M 268.5,121.5 C 266.804,123.623 264.804,124.289 262.5,123.5C 262.5,119.5 262.5,115.5 262.5,111.5C 265.777,111.216 268.943,111.549 272,112.5C 273.041,116.41 271.875,119.41 268.5,121.5 Z"/></g>
<g><path style="opacity:0.004" fill="#dcdddc" d="M 247.5,119.5 C 248.833,120.167 248.833,120.167 247.5,119.5 Z"/></g>
<g><path style="opacity:1" fill="#c6a01e" d="M 181.5,133.5 C 180.167,132.5 178.833,131.5 177.5,130.5C 175.537,129.04 173.704,127.373 172,125.5C 171.333,121.167 171.333,116.833 172,112.5C 174.124,111.773 176.291,111.106 178.5,110.5C 179.478,110.977 180.311,111.643 181,112.5C 181.499,116.152 181.665,119.818 181.5,123.5C 188.508,123.334 195.508,123.5 202.5,124C 203.833,127 203.833,130 202.5,133C 195.508,133.5 188.508,133.666 181.5,133.5 Z"/></g>
<g><path style="opacity:0.73" fill="#000000" d="M 72.5,123.5 C 82.4747,124.23 92.4747,124.73 102.5,125C 105.037,127.872 107.87,130.372 111,132.5C 112.13,139.232 112.63,146.065 112.5,153C 112.167,159.167 111.833,165.333 111.5,171.5C 98.2121,172.648 84.8787,172.815 71.5,172C 67.275,168.278 63.6084,164.112 60.5,159.5C 61.3053,150.881 61.8053,142.215 62,133.5C 65.3955,129.935 68.8955,126.602 72.5,123.5 Z M 71.5,133.5 C 80.8393,133.334 90.1726,133.5 99.5,134C 100.126,134.75 100.626,135.584 101,136.5C 101.667,144.167 101.667,151.833 101,159.5C 100.535,160.931 99.7014,162.097 98.5,163C 89.5589,162.587 80.5589,162.42 71.5,162.5C 71.5,152.833 71.5,143.167 71.5,133.5 Z"/></g>
<g><path style="opacity:0.726" fill="#000000" d="M 153.5,123.5 C 160.703,122.704 163.036,125.704 160.5,132.5C 151.303,133.154 142.136,133.821 133,134.5C 132.833,146.847 132.333,159.18 131.5,171.5C 128.897,172.562 126.23,172.728 123.5,172C 122.874,171.25 122.374,170.416 122,169.5C 121.333,158.167 121.333,146.833 122,135.5C 125.446,132.054 128.946,128.554 132.5,125C 139.679,124.829 146.679,124.329 153.5,123.5 Z"/></g>
<g><path style="opacity:0.756" fill="#000000" d="M 224.5,123.5 C 231.726,124.597 238.893,124.597 246,123.5C 251.801,123.302 253.801,125.968 252,131.5C 251.5,132 251,132.5 250.5,133C 241.589,133.181 232.755,133.681 224,134.5C 223.833,146.847 223.333,159.18 222.5,171.5C 219.897,172.562 217.23,172.728 214.5,172C 213.345,159.774 212.845,147.608 213,135.5C 216.982,131.684 220.815,127.684 224.5,123.5 Z"/></g>
<g><path style="opacity:0.747" fill="#000100" d="M 323.5,163.5 C 323.5,164.833 323.5,166.167 323.5,167.5C 321.968,169.521 319.968,171.021 317.5,172C 309.5,172.667 301.5,172.667 293.5,172C 290.299,168.464 286.799,165.297 283,162.5C 282.347,151.16 282.014,139.826 282,128.5C 283.112,124.088 285.946,122.588 290.5,124C 292.216,136.618 293.216,149.452 293.5,162.5C 303.509,162.612 313.509,162.945 323.5,163.5 Z"/></g>
<g><path style="opacity:0.767" fill="#020201" d="M 353.5,171.5 C 353.667,158.829 353.5,146.162 353,133.5C 352.722,132.584 352.222,131.918 351.5,131.5C 351.714,129.856 351.38,128.356 350.5,127C 351.618,125.926 352.618,124.76 353.5,123.5C 371.5,124.833 389.5,124.833 407.5,123.5C 412.752,126.253 417.252,129.92 421,134.5C 421.833,146.847 421.666,159.18 420.5,171.5C 417.634,172.795 414.801,172.795 412,171.5C 411.667,159.167 411.333,146.833 411,134.5C 410.667,134.833 410.333,135.167 410,135.5C 405.754,134.201 401.254,133.534 396.5,133.5C 382.86,133.642 369.193,133.975 355.5,134.5C 354.852,146.961 354.185,159.295 353.5,171.5 Z"/></g>
<g><path style="opacity:0.729" fill="#040302" d="M 268.5,121.5 C 269.207,123.134 270.373,124.468 272,125.5C 272.667,140.5 272.667,155.5 272,170.5C 269.24,172.703 266.24,173.036 263,171.5C 262.825,156.259 262.325,141.092 261.5,126C 262.252,125.329 262.586,124.496 262.5,123.5C 264.804,124.289 266.804,123.623 268.5,121.5 Z"/></g>
<g><path style="opacity:0.701" fill="#030201" d="M 177.5,130.5 C 178.833,131.5 180.167,132.5 181.5,133.5C 181.402,142.962 181.568,152.629 182,162.5C 188.192,162.809 194.692,162.975 201.5,163C 202.684,164.18 203.351,165.68 203.5,167.5C 203.351,169.32 202.684,170.82 201.5,172C 194.392,172.924 187.392,172.591 180.5,171C 179,168.167 176.833,166 174,164.5C 172.249,162.51 171.249,160.177 171,157.5C 170.333,148.5 170.333,139.5 171,130.5C 173.17,130.839 175.336,130.839 177.5,130.5 Z"/></g>
<g><path style="opacity:0.004" fill="#dcdddc" d="M 370.5,134.5 C 371.833,135.167 371.833,135.167 370.5,134.5 Z"/></g>
<g><path style="opacity:0.004" fill="#dcdddc" d="M 244.5,140.5 C 245.833,141.167 245.833,141.167 244.5,140.5 Z"/></g>
<g><path style="opacity:1" fill="#d0a412" d="M 351.5,131.5 C 352.222,131.918 352.722,132.584 353,133.5C 353.5,146.162 353.667,158.829 353.5,171.5C 352.207,172.158 350.707,172.492 349,172.5C 347.019,172.371 345.353,171.704 344,170.5C 343.244,157.474 343.41,144.474 344.5,131.5C 346.833,131.5 349.167,131.5 351.5,131.5 Z"/></g>
<g><path style="opacity:1" fill="#c59e19" d="M 378.5,141.5 C 381.5,141.5 384.5,141.5 387.5,141.5C 388.036,149.714 388.202,158.047 388,166.5C 388.592,170.883 386.759,172.883 382.5,172.5C 380.9,172.449 379.4,172.116 378,171.5C 377.193,161.423 377.36,151.423 378.5,141.5 Z"/></g>
<g><path style="opacity:0.975" fill="#bc9719" d="M 332.5,171.5 C 330.409,171.682 328.409,171.348 326.5,170.5C 325.616,167.344 324.616,164.344 323.5,161.5C 323.333,149.495 323.5,137.495 324,125.5C 327.333,122.833 330.667,122.833 334,125.5C 334.667,140.5 334.667,155.5 334,170.5C 333.617,171.056 333.117,171.389 332.5,171.5 Z"/></g>
<g><path style="opacity:0.004" fill="#dcdddc" d="M 280.5,155.5 C 281.833,156.167 281.833,156.167 280.5,155.5 Z"/></g>
<g><path style="opacity:0.004" fill="#dcdddc" d="M 190.5,160.5 C 191.833,161.167 191.833,161.167 190.5,160.5 Z"/></g>
<g><path style="opacity:0.247" fill="#978134" d="M 323.5,161.5 C 324.616,164.344 325.616,167.344 326.5,170.5C 328.409,171.348 330.409,171.682 332.5,171.5C 327.844,173.749 324.844,172.416 323.5,167.5C 323.5,166.167 323.5,164.833 323.5,163.5C 323.5,162.833 323.5,162.167 323.5,161.5 Z"/></g>
<g><path style="opacity:0.004" fill="#dcdddc" d="M 139.5,177.5 C 140.833,178.167 140.833,178.167 139.5,177.5 Z"/></g>
<g><path style="opacity:0.004" fill="#dcdddc" d="M 184.5,196.5 C 185.833,197.167 185.833,197.167 184.5,196.5 Z"/></g>
<g><path style="opacity:0.004" fill="#dcdddc" d="M 271.5,196.5 C 272.833,197.167 272.833,197.167 271.5,196.5 Z"/></g>
<g><path style="opacity:0.004" fill="#dcdddc" d="M 439.5,200.5 C 440.833,201.167 440.833,201.167 439.5,200.5 Z"/></g>
<g><path style="opacity:0.004" fill="#dcdddc" d="M 406.5,202.5 C 407.525,202.897 407.692,203.563 407,204.5C 406.536,203.906 406.369,203.239 406.5,202.5 Z"/></g>
<g><path style="opacity:0.004" fill="#dcdddc" d="M 178.5,205.5 C 179.833,206.167 179.833,206.167 178.5,205.5 Z"/></g>
<g><path style="opacity:0.004" fill="#dcdddc" d="M 160.5,215.5 C 161.833,216.167 161.833,216.167 160.5,215.5 Z"/></g>
<g><path style="opacity:0.004" fill="#dcdddc" d="M 433.5,216.5 C 434.833,217.167 434.833,217.167 433.5,216.5 Z"/></g>
<g><path style="opacity:0.004" fill="#dcdddc" d="M 46.5,220.5 C 47.8333,221.167 47.8333,221.167 46.5,220.5 Z"/></g>
<g><path style="opacity:0.004" fill="#dcdddc" d="M 457.5,223.5 C 458.833,224.167 458.833,224.167 457.5,223.5 Z"/></g>
<g><path style="opacity:0.004" fill="#dcdddc" d="M 115.5,224.5 C 116.833,225.167 116.833,225.167 115.5,224.5 Z"/></g>
<g><path style="opacity:0.004" fill="#dcdddc" d="M 244.5,228.5 C 245.833,229.167 245.833,229.167 244.5,228.5 Z"/></g>
<g><path style="opacity:0.004" fill="#dcdddc" d="M 271.5,229.5 C 272.833,230.167 272.833,230.167 271.5,229.5 Z"/></g>
<g><path style="opacity:0.004" fill="#dcdddc" d="M 205.5,230.5 C 206.833,231.167 206.833,231.167 205.5,230.5 Z"/></g>
<g><path style="opacity:0.004" fill="#dcdddc" d="M 364.5,243.5 C 365.833,244.167 365.833,244.167 364.5,243.5 Z"/></g>
<g><path style="opacity:0.004" fill="#dcdddc" d="M 121.5,248.5 C 122.833,249.167 122.833,249.167 121.5,248.5 Z"/></g>
<g><path style="opacity:0.004" fill="#dcdddc" d="M 190.5,254.5 C 191.833,255.167 191.833,255.167 190.5,254.5 Z"/></g>
<g><path style="opacity:0.004" fill="#dcdddc" d="M 409.5,260.5 C 410.833,261.167 410.833,261.167 409.5,260.5 Z"/></g>
<g><path style="opacity:0.004" fill="#dcdddc" d="M 37.5,267.5 C 38.8333,268.167 38.8333,268.167 37.5,267.5 Z"/></g>
<g><path style="opacity:0.004" fill="#dcdddc" d="M 70.5,270.5 C 71.8333,271.167 71.8333,271.167 70.5,270.5 Z"/></g>
<g><path style="opacity:0.004" fill="#dcdddc" d="M 182.5,273.5 C 181.833,272.167 181.833,272.167 182.5,273.5 Z"/></g>
</svg>
